<svg id="Layer_1" data-name="Layer 1" xmlns="http://www.w3.org/2000/svg" viewBox="0 0 286.89 87.3"><defs><style>.cls-1{fill:#a3a8ab}</style><linearGradient id="Nelnet_Gradient_2" x1="43.5" y1="85.36" x2="43.5" y2="1.4" gradientUnits="userSpaceOnUse"><stop offset="0" stop-color="#87b03f"/><stop offset="1" stop-color="#b9c832"/></linearGradient></defs><path class="cls-1" d="M274.88 55.68c-2.91-.14-4.63-.76-6.09-2.21a9.62 9.62 0 0 1-1.79-6.16V32.64h7.35A.63.63 0 0 0 275 32v-7a.64.64 0 0 0-.63-.64H267v-9.7a.63.63 0 0 0-.63-.63h-9.47a.64.64 0 0 0-.64.63v32.66c0 5.78 1.74 10 5.31 13 2.74 2.36 7.11 3.67 12.3 3.67h1a.63.63 0 0 0 .61-.63v-7.05a.62.62 0 0 0-.6-.63M156.51 55.54H156c-2.69 0-4.46-.59-5.58-1.86s-1.7-3.51-1.7-6.61V8.24a.63.63 0 0 0-.63-.63h-9.47a.63.63 0 0 0-.63.63v38.9c0 6 1.71 10.44 5.23 13.44 2.54 2.22 6.52 3.44 11.2 3.44.69 0 1.4 0 2.11-.08a.63.63 0 0 0 .59-.63v-7.13a.64.64 0 0 0-.19-.46.7.7 0 0 0-.46-.18M46 23.26c-4.46 0-7.6 2-10.27 4.3l-.15-2.71a.62.62 0 0 0-.63-.6h-8.5a.64.64 0 0 0-.64.63v38a.64.64 0 0 0 .64.63h9.46a.64.64 0 0 0 .64-.63V36.67c3.45-3.91 5-4.55 7.27-4.55 3.18 0 6.58 2.16 6.58 8.21v22.52a.63.63 0 0 0 .63.63h9.47a.63.63 0 0 0 .63-.63V38.39c0-9.93-7.61-15.13-15.13-15.13M103 41c.44-5.91 3.45-9.3 8.27-9.3 5.31 0 7.67 2.71 7.67 8.77V41zm8-17.69c-13 0-18.74 10.32-18.74 20.56s5.85 20.49 18.94 20.49c6 0 11.37-2.08 14.87-5.71a.64.64 0 0 0 .06-.82l-3.78-5.1a.64.64 0 0 0-.88-.14 16.2 16.2 0 0 1-9.39 3.4h-.8c-4.42-.14-7.35-3.08-8.3-8.31h25a.63.63 0 0 0 .62-.54 30 30 0 0 0 .35-4.54c0-12.07-6.71-19.27-17.95-19.27M186.39 23.26c-4.46 0-7.61 2-10.27 4.3l-.12-2.71a.63.63 0 0 0-.63-.6h-8.5a.63.63 0 0 0-.64.63v38a.63.63 0 0 0 .64.63h9.46a.64.64 0 0 0 .64-.63V36.67c3.45-3.91 5-4.55 7.27-4.55 3.18 0 6.57 2.16 6.57 8.21v22.52a.64.64 0 0 0 .64.63h9.47a.63.63 0 0 0 .63-.63V38.39c0-9.93-7.61-15.13-15.13-15.13M221.26 41c.44-5.91 3.45-9.3 8.27-9.3 5.3 0 7.67 2.71 7.67 8.77V41zm8-17.69c-12.94 0-18.74 10.32-18.74 20.56s5.86 20.49 18.95 20.49c6 0 11.37-2.08 14.87-5.71a.62.62 0 0 0 .05-.82l-3.78-5.1a.64.64 0 0 0-.88-.14 16.17 16.17 0 0 1-9.38 3.4h-.8c-4.43-.14-7.36-3.08-8.3-8.31h25a.64.64 0 0 0 .63-.54 30 30 0 0 0 .35-4.54c0-12.07-6.71-19.27-18-19.27M281.37 59.62h1.08a1.12 1.12 0 0 0 .37-.09.71.71 0 0 0 .27-.21.64.64 0 0 0 .11-.4.67.67 0 0 0-.08-.33.58.58 0 0 0-.21-.2 1 1 0 0 0-.3-.11 1.84 1.84 0 0 0-.33 0h-.91zm0 2.25h-.52v-4.09h1.58a1.41 1.41 0 0 1 1 .29 1.1 1.1 0 0 1 .3.84 1.19 1.19 0 0 1-.09.49.8.8 0 0 1-.22.34 1.19 1.19 0 0 1-.33.22 2.34 2.34 0 0 1-.4.12l1.23 1.79h-.59l-1.22-1.79h-.73zm-2.27-2a2.9 2.9 0 0 0 .24 1.18 3.24 3.24 0 0 0 .65 1 3.12 3.12 0 0 0 1 .65 2.9 2.9 0 0 0 1.18.24 2.93 2.93 0 0 0 1.18-.24 3 3 0 0 0 1.59-1.7 3 3 0 0 0 0-2.36 3 3 0 0 0-1.62-1.64 2.93 2.93 0 0 0-1.18-.24A2.9 2.9 0 0 0 281 57a3.12 3.12 0 0 0-1 .65 3.24 3.24 0 0 0-.65 1 2.9 2.9 0 0 0-.24 1.18m-.51 0a3.37 3.37 0 0 1 .28-1.38 3.68 3.68 0 0 1 .76-1.13 3.81 3.81 0 0 1 1.13-.76 3.54 3.54 0 0 1 2.76 0 3.54 3.54 0 0 1 1.89 1.89 3.54 3.54 0 0 1 0 2.76 3.54 3.54 0 0 1-1.89 1.89 3.54 3.54 0 0 1-2.76 0 3.81 3.81 0 0 1-1.13-.76 3.68 3.68 0 0 1-.76-1.13 3.37 3.37 0 0 1-.28-1.38"/><path d="M43.5 1.4a42 42 0 1 0 42 42 42 42 0 0 0-42-42m33.33 42A33.33 33.33 0 1 1 43.5 10a33.37 33.37 0 0 1 33.33 33.37" fill="url(#Nelnet_Gradient_2)"/></svg>